<?xml version="1.0" encoding="iso-8859-1"?>
<!-- Generator: Adobe Illustrator 19.0.0, SVG Export Plug-In . SVG Version: 6.00 Build 0)  -->
<svg version="1.1" id="Layer_1" xmlns="http://www.w3.org/2000/svg" xmlns:xlink="http://www.w3.org/1999/xlink" x="0px" y="0px"
	 viewBox="0 0 306.256 306.256" style="enable-background:new 0 0 306.256 306.256;" xml:space="preserve">
<g>
	<g>
		<g>
			<path d="M282.468,166.157v-26.059l21.313-19.243c2.355-2.126,3.118-5.505,1.903-8.437L289.787,74.04
				c-1.214-2.932-4.139-4.774-7.311-4.62l-28.678,1.465l-18.427-18.427l1.465-28.677c0.162-3.169-1.689-6.098-4.62-7.312
				L193.837,0.571c-2.933-1.214-6.31-0.452-8.438,1.903l-19.241,21.314h-26.06L120.856,2.474c-2.126-2.355-5.504-3.116-8.437-1.903
				L74.04,16.468c-2.932,1.214-4.782,4.143-4.62,7.312l1.465,28.677L52.458,70.884L23.781,69.42
				c-3.166-0.157-6.098,1.688-7.312,4.62L0.572,112.419c-1.214,2.932-0.452,6.311,1.903,8.437l21.313,19.242v26.06L2.475,185.4
				c-2.355,2.126-3.118,5.505-1.903,8.437l15.897,38.379c1.214,2.932,4.144,4.782,7.312,4.62l28.677-1.465l18.427,18.427
				l-1.465,28.677c-0.162,3.169,1.689,6.098,4.62,7.312l38.379,15.897c2.933,1.215,6.311,0.453,8.437-1.903l19.243-21.314h26.06
				l19.241,21.314c1.453,1.609,3.489,2.475,5.569,2.475c0.965,0,1.939-0.186,2.868-0.571l38.379-15.897
				c2.932-1.214,4.782-4.143,4.62-7.312l-1.465-28.677l18.427-18.427l28.678,1.465c3.175,0.159,6.098-1.689,7.311-4.62
				l15.897-38.379c1.215-2.932,0.452-6.311-1.903-8.437L282.468,166.157z M277.955,221.586l-26.721-1.365
				c-2.129-0.107-4.186,0.687-5.686,2.187l-23.141,23.141c-1.5,1.501-2.295,3.566-2.186,5.686l1.365,26.72l-28.599,11.846
				l-17.929-19.859c-1.423-1.575-3.445-2.474-5.567-2.474h-32.726c-2.122,0-4.145,0.899-5.567,2.474l-17.929,19.859L84.67,277.955
				l1.365-26.72c0.108-2.12-0.686-4.186-2.187-5.686l-23.141-23.141c-1.5-1.501-3.561-2.295-5.686-2.187l-26.72,1.365
				l-11.846-28.599l19.859-17.929c1.575-1.422,2.474-3.445,2.474-5.567v-32.726c0-2.122-0.899-4.145-2.474-5.567l-19.859-17.929
				L28.301,84.67l26.72,1.365c2.123,0.108,4.185-0.686,5.686-2.187l23.141-23.141c1.501-1.5,2.295-3.566,2.187-5.686l-1.365-26.72
				l28.599-11.846l17.929,19.859c1.422,1.575,3.445,2.474,5.567,2.474h32.726c2.122,0,4.145-0.899,5.567-2.474l17.929-19.859
				l28.599,11.846l-1.365,26.72c-0.108,2.12,0.686,4.186,2.186,5.686l23.141,23.141c1.5,1.5,3.56,2.297,5.686,2.187l26.721-1.365
				l11.846,28.599l-19.858,17.929c-1.575,1.422-2.475,3.445-2.475,5.567v32.726c0,2.122,0.899,4.145,2.475,5.567l19.858,17.929
				L277.955,221.586z"/>
			<path d="M153.128,71.045c-45.261,0-82.084,36.822-82.084,82.083s36.822,82.084,82.084,82.084
				c45.261,0,82.083-36.822,82.083-82.084C235.211,107.866,198.389,71.045,153.128,71.045z M153.128,220.212
				c-36.99,0-67.084-30.094-67.084-67.084s30.094-67.083,67.084-67.083c36.989,0,67.083,30.094,67.083,67.083
				S190.118,220.212,153.128,220.212z"/>
			<path d="M153.128,101.184c-28.642,0-51.944,23.302-51.944,51.944s23.302,51.944,51.944,51.944
				c28.643,0,51.944-23.302,51.944-51.944C205.072,124.486,181.771,101.184,153.128,101.184z M153.128,190.072
				c-20.371,0-36.944-16.573-36.944-36.944c0-20.371,16.573-36.944,36.944-36.944c20.371,0,36.944,16.573,36.944,36.944
				C190.072,173.499,173.499,190.072,153.128,190.072z"/>
		</g>
	</g>
</g>
<g>
</g>
<g>
</g>
<g>
</g>
<g>
</g>
<g>
</g>
<g>
</g>
<g>
</g>
<g>
</g>
<g>
</g>
<g>
</g>
<g>
</g>
<g>
</g>
<g>
</g>
<g>
</g>
<g>
</g>
</svg>
